<svg xmlns="http://www.w3.org/2000/svg" width="20.714" height="20.714" viewBox="0 0 20.714 20.714"><defs><style>.a{fill:#fff;}</style></defs><path class="a" d="M14.987,0H5.727A5.72,5.72,0,0,0,0,5.727v9.261a5.72,5.72,0,0,0,5.727,5.727h9.261a5.72,5.72,0,0,0,5.727-5.727V5.727A5.8,5.8,0,0,0,14.987,0Zm3.838,14.987a3.822,3.822,0,0,1-3.838,3.838H5.727a3.822,3.822,0,0,1-3.838-3.838V5.727a3.836,3.836,0,0,1,3.838-3.9h9.261a3.822,3.822,0,0,1,3.838,3.838v9.321Z"/><path class="a" d="M13.6,8.2a5.3,5.3,0,1,0,5.3,5.3A5.3,5.3,0,0,0,13.6,8.2Zm0,8.834a3.473,3.473,0,1,1,0-6.945,3.473,3.473,0,0,1,0,6.945Z" transform="translate(-3.243 -3.204)"/><path class="a" d="M25.24,5.7a1.494,1.494,0,0,0-.975.366,1.384,1.384,0,0,0-.366.975,1.494,1.494,0,0,0,.366.975,1.384,1.384,0,0,0,.975.366,1.494,1.494,0,0,0,.975-.366,1.384,1.384,0,0,0,.366-.975,1.384,1.384,0,0,0-.366-.975A1.62,1.62,0,0,0,25.24,5.7Z" transform="translate(-9.339 -2.228)"/></svg>